<svg xmlns="http://www.w3.org/2000/svg" viewBox="0 0 77.2 83.891" xmlns:xlink="http://www.w3.org/1999/xlink"><defs><linearGradient id="a" x1="41.38" x2="50.13" y1="26.01" y2="17.27" gradientTransform="translate(138.314 102.917)scale(1.14254)" gradientUnits="userSpaceOnUse" spreadMethod="pad"><stop offset="0" stop-color="#e11f74"/><stop offset="1" stop-color="#ef7ec0"/></linearGradient><linearGradient id="b" x1="41.44" x2="49.92" y1="25.61" y2="17.12" gradientTransform="translate(138.314 102.917)scale(1.14254)" gradientUnits="userSpaceOnUse" spreadMethod="pad"><stop offset="0" stop-color="#860043"/><stop offset="1" stop-color="#ef7ec0"/></linearGradient><linearGradient id="c" x1="-107.63" x2="-50.54" y1="-119.75" y2="-119.75" gradientTransform="rotate(66.5 -166.025 225.786)scale(1.14254)" gradientUnits="userSpaceOnUse" spreadMethod="pad"><stop offset="0" stop-color="#e11f74"/><stop offset="1" stop-color="#ef7ec0"/></linearGradient><linearGradient id="d" x1="-107.75" x2="-50.45" y1="-118.28" y2="-118.28" gradientTransform="rotate(66.5 -166.025 225.786)scale(1.14254)" gradientUnits="userSpaceOnUse" spreadMethod="pad"><stop offset="0" stop-color="#860043"/><stop offset="1" stop-color="#ef7ec0"/></linearGradient><linearGradient id="e" x1="-99.74" x2="-69.92" y1="-86.84" y2="-116.66" gradientTransform="rotate(66.5 -166.025 225.786)scale(1.14254)" gradientUnits="userSpaceOnUse" spreadMethod="pad"><stop offset="0" stop-color="#073e98"/><stop offset=".16" stop-color="#09439a"/><stop offset=".36" stop-color="#0d52a0"/><stop offset=".57" stop-color="#156bab"/><stop offset=".8" stop-color="#1f8eb9"/><stop offset="1" stop-color="#2ab2c8"/></linearGradient><linearGradient id="f" x1="-102.02" x2="-66.59" y1="-95.71" y2="-131.14" gradientTransform="rotate(66.5 -166.025 225.786)scale(1.14254)" gradientUnits="userSpaceOnUse" spreadMethod="pad"><stop offset="0" stop-color="#073e98"/><stop offset=".17" stop-color="#08439a"/><stop offset=".36" stop-color="#0d51a0"/><stop offset=".56" stop-color="#1467a9"/><stop offset=".78" stop-color="#1d88b6"/><stop offset=".99" stop-color="#2ab0c7"/><stop offset="1" stop-color="#2ab2c8"/></linearGradient><linearGradient id="g" x1="41.24" x2="49.73" y1="25.41" y2="16.92" gradientTransform="translate(138.314 102.917)scale(1.14254)" gradientUnits="userSpaceOnUse" spreadMethod="pad"><stop offset="0" stop-color="#073e98"/><stop offset=".17" stop-color="#08439a"/><stop offset=".36" stop-color="#0d51a0"/><stop offset=".56" stop-color="#1467a9"/><stop offset=".78" stop-color="#1d88b6"/><stop offset=".99" stop-color="#2ab0c7"/><stop offset="1" stop-color="#2ab2c8"/></linearGradient></defs><path fill="url(#a)" d="M197.84 127.48a7.084 7.084 0 1 1-14.168.004 7.084 7.084 0 0 1 14.168-.004" transform="translate(-209.436 -155.656)scale(1.33333)"/><path fill="url(#b)" d="M197.496 127.141a6.856 6.856 0 1 1-13.71-.003 6.856 6.856 0 0 1 13.71.003" transform="translate(-209.436 -155.656)scale(1.33333)"/><path fill="url(#c)" d="M175.676 125.426a18.5 18.5 0 0 0 .457 7.539c1.371 5.027 4.683 9.027 9.48 12.226a74 74 0 0 0 12.34 6.286c7.086 3.082 10.285 5.484 11.313 7.996 2.054 5.597-4.114 11.769-2.743 12.797 1.372 1.027 5.711-1.942 7.997-5.829l.343-.457a2.2 2.2 0 0 0 .114-.57 14.63 14.63 0 0 0-2.969-8.797c-2.742-3.543-6.969-5.715-11.196-7.312a71.7 71.7 0 0 1-12.457-5.598c-6.054-3.773-10.054-8.914-10.625-15.769a16 16 0 0 1 3.543-11.196l-1.144.344a2.9 2.9 0 0 0-1.027.457c-1.715.914-2.856 5.027-2.856 5.027s-.344 1.711-.57 2.856" transform="translate(-209.436 -155.656)scale(1.33333)"/><path fill="url(#d)" d="M173.848 129.195c.34 6.969 4.113 12.453 10.168 16.567a71 71 0 0 0 12.453 6.285c4.226 1.828 8.453 4.113 11.195 7.996 2.742 3.887 2.402 7.883 1.715 11.656l.801-.574a9.38 9.38 0 0 0 3.086-4.91.34.34 0 0 1 .113-.231c0-3.16-1-6.238-2.856-8.796-2.859-3.657-7.085-5.711-11.312-7.313a71.7 71.7 0 0 1-12.453-5.598c-6.055-3.769-10.055-9.027-10.625-15.765 0 0-.688-6.516 3.539-11.313l-1.484.571h-.114c-4.683 4.683-4.226 11.425-4.226 11.425" transform="translate(-209.436 -155.656)scale(1.33333)"/><path fill="url(#e)" d="M192.012 169.641a25 25 0 0 0-8.34-6.739 85 85 0 0 1-9.367-5.601c-7.657-5.824-9.598-14.965-9.828-15.996a27.9 27.9 0 0 1 1.828-15.766 32.56 32.56 0 0 0-6.739 35.191c6.043 13.27 20.223 20.852 34.618 18.508a11.2 11.2 0 0 0-2.172-9.597" transform="translate(-209.436 -155.656)scale(1.33333)"/><path fill="url(#f)" d="M209.949 171.355a5.6 5.6 0 0 0 1.828-4.226 14.83 14.83 0 0 0-2.511-7.656c-2.743-3.883-6.969-6.168-11.313-7.996a74 74 0 0 1-12.34-6.286c-6.054-4.113-9.824-9.597-10.168-16.566 0 0-.457-6.742 4.227-11.426-.945.242-1.867.586-2.742 1.028a30.5 30.5 0 0 0-8.453 5.371 4.85 4.85 0 0 0-1.258 1.828c-4.86 10.926-1.543 23.758 8 30.961 2.855 2.285 6.168 3.773 9.254 5.601s6.285 3.77 8.453 6.739a12.6 12.6 0 0 1 2.515 5.371 13.2 13.2 0 0 1 0 4.797l6.625-2.743a30.2 30.2 0 0 0 7.883-4.797" transform="translate(-209.436 -155.656)scale(1.33333)"/><path fill="url(#g)" d="M197.383 126.91a6.86 6.86 0 0 1-6.856 6.856 6.856 6.856 0 1 1 6.856-6.856" transform="translate(-209.436 -155.656)scale(1.33333)"/></svg>